<svg width="1600" height="900" viewBox="0 0 1600 900" fill="none" xmlns="http://www.w3.org/2000/svg">
  <defs>
    <linearGradient id="bg" x1="200" y1="40" x2="1400" y2="860" gradientUnits="userSpaceOnUse">
      <stop stop-color="#161127"/>
      <stop offset="1" stop-color="#05070C"/>
    </linearGradient>
    <radialGradient id="glow" cx="0" cy="0" r="1" gradientUnits="userSpaceOnUse" gradientTransform="translate(1180 220) rotate(139.503) scale(464.194 600.519)">
      <stop stop-color="#c0a7ff" stop-opacity="0.38"/>
      <stop offset="1" stop-color="#c0a7ff" stop-opacity="0"/>
    </radialGradient>
    <linearGradient id="panel" x1="0" y1="0" x2="0" y2="1">
      <stop stop-color="rgba(255,255,255,0.14)"/>
      <stop offset="1" stop-color="rgba(255,255,255,0.04)"/>
    </linearGradient>
  </defs>
  <rect width="1600" height="900" rx="44" fill="url(#bg)"/>
  <rect width="1600" height="900" rx="44" fill="url(#glow)"/>
  <g opacity="0.52">
    <path d="M0 179H1600" stroke="white" stroke-opacity="0.06"/>
    <path d="M0 450H1600" stroke="white" stroke-opacity="0.05"/>
    <path d="M0 720H1600" stroke="white" stroke-opacity="0.04"/>
    <path d="M236 0V900" stroke="white" stroke-opacity="0.04"/>
    <path d="M800 0V900" stroke="white" stroke-opacity="0.05"/>
    <path d="M1364 0V900" stroke="white" stroke-opacity="0.04"/>
  </g>
  <rect x="92" y="92" width="1416" height="716" rx="34" fill="rgba(255,255,255,0.03)" stroke="rgba(255,255,255,0.08)"/>
  <rect x="144" y="146" width="470" height="608" rx="28" fill="rgba(6,8,12,0.7)" stroke="rgba(255,255,255,0.08)"/>
  <rect x="662" y="146" width="794" height="318" rx="28" fill="rgba(7,9,14,0.62)" stroke="rgba(255,255,255,0.08)"/>
  <rect x="662" y="490" width="380" height="264" rx="28" fill="rgba(7,9,14,0.56)" stroke="rgba(255,255,255,0.07)"/>
  <rect x="1076" y="490" width="380" height="264" rx="28" fill="rgba(7,9,14,0.56)" stroke="rgba(255,255,255,0.07)"/>
  <circle cx="1350" cy="250" r="116" fill="#c0a7ff" fill-opacity="0.16"/>
  <circle cx="1350" cy="250" r="52" fill="#c0a7ff" fill-opacity="0.92"/>
  <rect x="186" y="204" width="138" height="28" rx="14" fill="#c0a7ff" fill-opacity="0.16" stroke="#c0a7ff" stroke-opacity="0.42"/>
  <text x="220" y="223" fill="#c0a7ff" font-family="Inter, Arial, sans-serif" font-size="14" letter-spacing="3.2">MEDIA ARCHIVE</text>
  <text x="186" y="305" fill="#F6F7FB" font-family="Inter, Arial, sans-serif" font-size="52" font-weight="600">YogaLorena VOD</text>
  <text x="186" y="352" fill="rgba(241,243,248,0.56)" font-family="Inter, Arial, sans-serif" font-size="24">Library interface · premium subscription UX</text>
  <text x="186" y="590" fill="rgba(241,243,248,0.42)" font-family="Inter, Arial, sans-serif" font-size="17">Placeholder preview — replace with real capture or video poster.</text>
  <text x="698" y="214" fill="rgba(241,243,248,0.38)" font-family="Inter, Arial, sans-serif" font-size="16" letter-spacing="3">FRAME 01</text>
  <text x="698" y="284" fill="#F6F7FB" font-family="Inter, Arial, sans-serif" font-size="40" font-weight="600">Visual system ready for your real assets</text>
  <text x="698" y="334" fill="rgba(241,243,248,0.56)" font-family="Inter, Arial, sans-serif" font-size="22">Dark, premium, technical placeholders that preserve the composition.</text>
  <rect x="698" y="380" width="246" height="14" rx="7" fill="rgba(255,255,255,0.08)"/>
  <rect x="698" y="414" width="326" height="14" rx="7" fill="rgba(255,255,255,0.06)"/>
  <rect x="708" y="536" width="290" height="40" rx="20" fill="rgba(255,255,255,0.04)" stroke="rgba(255,255,255,0.08)"/>
  <text x="744" y="562" fill="#F6F7FB" font-family="Inter, Arial, sans-serif" font-size="17">Still / UI capture</text>
  <rect x="1118" y="536" width="290" height="40" rx="20" fill="rgba(255,255,255,0.04)" stroke="rgba(255,255,255,0.08)"/>
  <text x="1154" y="562" fill="#F6F7FB" font-family="Inter, Arial, sans-serif" font-size="17">Video / Demo placeholder</text>
</svg>
